<?xml version="1.0" ?><svg viewBox="0 0 29 37" xmlns="http://www.w3.org/2000/svg"><defs><style>.cls-1{fill:#f7931e;}.cls-2{fill:none;}</style></defs><title/><g data-name="Layer 2" id="Layer_2"><g data-name="Layer 1" id="Layer_1-2"><path class="cls-1" d="M26,12.3V11A11,11,0,0,0,4,11v1.06A4.59,4.59,0,0,0,0,16.6V32.4A4.61,4.61,0,0,0,4.6,37H24.4A4.61,4.61,0,0,0,29,32.4V16.6A4.59,4.59,0,0,0,26,12.3ZM6,11a9,9,0,0,1,18,0v1H20V11a5,5,0,0,0-10,0v1H6Zm12,1H12V11a3,3,0,0,1,6,0Zm9,20.4A2.6,2.6,0,0,1,24.4,35H4.6A2.6,2.6,0,0,1,2,32.4V16.6A2.6,2.6,0,0,1,4.6,14H24.4A2.6,2.6,0,0,1,27,16.6Z"/><rect class="cls-2" height="22" rx="2.67" ry="2.67" width="25" x="2" y="14"/><polygon class="cls-1" points="13.99 32.33 13.32 28.75 13.99 25.17 15.33 25.17 16 28.75 15.33 32.33 13.99 32.33"/></g></g></svg>